<svg width="127" height="127" viewBox="0 0 127 127" fill="none" xmlns="http://www.w3.org/2000/svg">
<g clip-path="url(#clip0_154_17)">
<rect width="127" height="127" rx="15.875" fill="url(#paint0_linear_154_17)"/>
<path d="M49.2824 41.6394L44.5573 37.5504C39.6504 40.761 35.4099 45.4256 31.8358 51.544C28.3222 57.6019 26.5654 63.478 26.5654 69.1724C26.5654 73.5341 27.7164 76.6842 30.0184 78.6227C32.3204 80.5007 35.1979 81.4396 38.6509 81.4396C41.6192 81.4396 44.1333 80.2886 46.1929 77.9866C48.2526 75.6846 49.2824 73.1101 49.2824 70.2629C49.2824 63.054 45.3751 59.4496 37.5605 59.4496L37.197 58.9044C38.4086 52.9071 42.4371 47.1521 49.2824 41.6394ZM82.9036 41.6394L78.2693 37.5504C73.3019 40.761 69.0311 45.4256 65.457 51.544C61.9434 57.6019 60.1866 63.478 60.1866 69.1724C60.1866 73.5341 61.3376 76.6842 63.6396 78.6227C65.9416 80.5007 68.8494 81.4396 72.3629 81.4396C75.3313 81.4396 77.815 80.2886 79.8141 77.9866C81.8738 75.6846 82.9036 73.1101 82.9036 70.2629C82.9036 63.054 78.9963 59.4496 71.1816 59.4496L70.8182 58.9044C72.0903 52.9676 76.1188 47.2127 82.9036 41.6394ZM51.2815 32.9161L61.3679 41.6394C54.5225 47.455 50.1608 52.3013 48.2829 56.1783C52.6446 56.6629 55.7038 58.5106 57.4606 61.7213C58.9145 56.2692 61.5799 50.8777 65.457 45.5468C69.3946 40.2158 73.7259 36.0056 78.4511 32.9161H84.9936L94.9891 41.6394C88.2042 47.455 83.8729 52.3013 81.9949 56.1783C89.4461 57.2687 93.1717 61.9636 93.1717 70.2629C93.1717 74.3822 91.4149 77.8958 87.9014 80.8035C84.4484 83.7113 79.2689 85.1652 72.3629 85.1652C65.0329 85.1652 60.1866 82.4392 57.824 76.9871C55.2192 82.4392 48.8281 85.1652 38.6509 85.1652C34.0469 85.1652 30.2607 83.8931 27.2924 81.3488C24.324 78.8044 22.8399 74.7457 22.8399 69.1724C22.8399 62.9934 24.9904 56.36 29.2915 49.2723C33.6531 42.1846 38.8326 36.7326 44.8299 32.9161H51.2815Z" fill="white"/>
</g>
<defs>
<linearGradient id="paint0_linear_154_17" x1="63.5" y1="0" x2="63.5" y2="127" gradientUnits="userSpaceOnUse">
<stop/>
<stop offset="1"/>
</linearGradient>
<clipPath id="clip0_154_17">
<rect width="127" height="127" rx="15.875" fill="white"/>
</clipPath>
</defs>
</svg>
