<svg width="16" height="16" viewBox="0 0 16 16" fill="none" xmlns="http://www.w3.org/2000/svg">
<g clip-path="url(#clip0_154_11)">
<rect width="16" height="16" rx="2" fill="url(#paint0_linear_154_11)"/>
<path d="M6.20881 5.30891L5.61352 4.79375C4.99533 5.19824 4.46109 5.7859 4.01081 6.55673C3.56815 7.31993 3.34683 8.06023 3.34683 8.77763C3.34683 9.32713 3.49183 9.72399 3.78185 9.96822C4.07186 10.2048 4.43438 10.3231 4.8694 10.3231C5.24337 10.3231 5.5601 10.1781 5.81958 9.88808C6.07907 9.59807 6.20881 9.27371 6.20881 8.91501C6.20881 8.0068 5.71655 7.5527 4.73203 7.5527L4.68624 7.48401C4.83888 6.72845 5.3464 6.00341 6.20881 5.30891ZM10.4445 5.30891L9.8607 4.79375C9.23488 5.19824 8.69683 5.7859 8.24654 6.55673C7.80389 7.31993 7.58256 8.06023 7.58256 8.77763C7.58256 9.32713 7.72757 9.72399 8.01759 9.96822C8.3076 10.2048 8.67393 10.3231 9.11659 10.3231C9.49055 10.3231 9.80346 10.1781 10.0553 9.88808C10.3148 9.59807 10.4445 9.27371 10.4445 8.91501C10.4445 8.0068 9.95229 7.5527 8.96776 7.5527L8.92197 7.48401C9.08224 6.73608 9.58977 6.01105 10.4445 5.30891ZM6.46067 4.2099L7.73139 5.30891C6.86898 6.04157 6.31948 6.65213 6.08288 7.14058C6.63239 7.20163 7.0178 7.43441 7.23913 7.8389C7.42229 7.15202 7.7581 6.47278 8.24654 5.80117C8.74262 5.12956 9.28831 4.59913 9.8836 4.2099H10.7079L11.9671 5.30891C11.1123 6.04157 10.5667 6.65213 10.3301 7.14058C11.2688 7.27795 11.7382 7.86943 11.7382 8.91501C11.7382 9.43398 11.5168 9.87663 11.0742 10.243C10.6392 10.6093 9.98663 10.7925 9.11659 10.7925C8.19312 10.7925 7.58256 10.449 7.28492 9.76215C6.95674 10.449 6.15157 10.7925 4.8694 10.7925C4.28937 10.7925 3.81238 10.6322 3.43841 10.3117C3.06444 9.99111 2.87746 9.47977 2.87746 8.77763C2.87746 7.99917 3.1484 7.16347 3.69027 6.27053C4.23977 5.37759 4.8923 4.69072 5.64786 4.2099H6.46067Z" fill="white"/>
</g>
<defs>
<linearGradient id="paint0_linear_154_11" x1="8" y1="0" x2="8" y2="16" gradientUnits="userSpaceOnUse">
<stop/>
<stop offset="1"/>
</linearGradient>
<clipPath id="clip0_154_11">
<rect width="16" height="16" rx="2" fill="white"/>
</clipPath>
</defs>
</svg>
