<svg width="48" height="48" viewBox="0 0 48 48" fill="none" xmlns="http://www.w3.org/2000/svg">
<g clip-path="url(#clip0_154_15)">
<rect width="48" height="48" rx="6" fill="url(#paint0_linear_154_15)"/>
<path d="M18.6264 15.9267L16.8406 14.3812C14.986 15.5947 13.3833 17.3577 12.0324 19.6702C10.7045 21.9598 10.0405 24.1807 10.0405 26.3329C10.0405 27.9814 10.4755 29.172 11.3455 29.9046C12.2156 30.6144 13.3031 30.9693 14.6082 30.9693C15.7301 30.9693 16.6803 30.5343 17.4587 29.6642C18.2372 28.7942 18.6264 27.8211 18.6264 26.745C18.6264 24.0204 17.1497 22.6581 14.1961 22.6581L14.0587 22.452C14.5166 20.1853 16.0392 18.0102 18.6264 15.9267ZM31.3336 15.9267L29.5821 14.3812C27.7047 15.5947 26.0905 17.3577 24.7396 19.6702C23.4117 21.9598 22.7477 24.1807 22.7477 26.3329C22.7477 27.9814 23.1827 29.172 24.0528 29.9046C24.9228 30.6144 26.0218 30.9693 27.3498 30.9693C28.4717 30.9693 29.4104 30.5343 30.166 29.6642C30.9444 28.7942 31.3336 27.8211 31.3336 26.745C31.3336 24.0204 29.8569 22.6581 26.9033 22.6581L26.7659 22.452C27.2467 20.2082 28.7693 18.0331 31.3336 15.9267ZM19.382 12.6297L23.1942 15.9267C20.6069 18.1247 18.9584 19.9564 18.2487 21.4217C19.8972 21.6049 21.0534 22.3032 21.7174 23.5167C22.2669 21.4561 23.2743 19.4183 24.7396 17.4035C26.2279 15.3887 27.8649 13.7974 29.6508 12.6297H32.1236L35.9014 15.9267C33.337 18.1247 31.7 19.9564 30.9902 21.4217C33.8064 21.8339 35.2145 23.6083 35.2145 26.745C35.2145 28.3019 34.5505 29.6299 33.2226 30.7289C31.9175 31.8279 29.9599 32.3774 27.3498 32.3774C24.5794 32.3774 22.7477 31.3471 21.8548 29.2865C20.8702 31.3471 18.4547 32.3774 14.6082 32.3774C12.8681 32.3774 11.4371 31.8966 10.3152 30.935C9.19333 29.9733 8.63239 28.4393 8.63239 26.3329C8.63239 23.9975 9.44519 21.4904 11.0708 18.8116C12.7193 16.1328 14.6769 14.0721 16.9436 12.6297H19.382Z" fill="white"/>
</g>
<defs>
<linearGradient id="paint0_linear_154_15" x1="24" y1="0" x2="24" y2="48" gradientUnits="userSpaceOnUse">
<stop/>
<stop offset="1"/>
</linearGradient>
<clipPath id="clip0_154_15">
<rect width="48" height="48" rx="6" fill="white"/>
</clipPath>
</defs>
</svg>
