<svg width="32" height="32" viewBox="0 0 32 32" fill="none" xmlns="http://www.w3.org/2000/svg">
<g clip-path="url(#clip0_154_13)">
<rect width="32" height="32" rx="4" fill="url(#paint0_linear_154_13)"/>
<path d="M12.4176 10.6178L11.227 9.5875C9.99066 10.3965 8.92219 11.5718 8.02162 13.1135C7.13631 14.6399 6.69365 16.1205 6.69365 17.5553C6.69365 18.6543 6.98367 19.448 7.5637 19.9364C8.14373 20.4096 8.86876 20.6462 9.73881 20.6462C10.4867 20.6462 11.1202 20.3562 11.6392 19.7762C12.1581 19.1961 12.4176 18.5474 12.4176 17.83C12.4176 16.0136 11.4331 15.1054 9.46406 15.1054L9.37247 14.968C9.67775 13.4569 10.6928 12.0068 12.4176 10.6178ZM20.8891 10.6178L19.7214 9.5875C18.4698 10.3965 17.3937 11.5718 16.4931 13.1135C15.6078 14.6399 15.1651 16.1205 15.1651 17.5553C15.1651 18.6543 15.4551 19.448 16.0352 19.9364C16.6152 20.4096 17.3479 20.6462 18.2332 20.6462C18.9811 20.6462 19.6069 20.3562 20.1106 19.7762C20.6296 19.1961 20.8891 18.5474 20.8891 17.83C20.8891 16.0136 19.9046 15.1054 17.9355 15.1054L17.8439 14.968C18.1645 13.4722 19.1795 12.0221 20.8891 10.6178ZM12.9213 8.41981L15.4628 10.6178C13.738 12.0831 12.639 13.3043 12.1658 14.2812C13.2648 14.4033 14.0356 14.8688 14.4783 15.6778C14.8446 14.304 15.5162 12.9456 16.4931 11.6023C17.4852 10.2591 18.5766 9.19827 19.7672 8.41981H21.4157L23.9342 10.6178C22.2247 12.0831 21.1333 13.3043 20.6601 14.2812C22.5376 14.5559 23.4763 15.7389 23.4763 17.83C23.4763 18.868 23.0337 19.7533 22.1484 20.4859C21.2783 21.2186 19.9733 21.5849 18.2332 21.5849C16.3862 21.5849 15.1651 20.8981 14.5698 19.5243C13.9135 20.8981 12.3031 21.5849 9.73881 21.5849C8.57875 21.5849 7.62475 21.2644 6.87682 20.6233C6.12889 19.9822 5.75492 18.9595 5.75492 17.5553C5.75492 15.9983 6.29679 14.3269 7.38053 12.5411C8.47953 10.7552 9.7846 9.38144 11.2957 8.41981H12.9213Z" fill="white"/>
</g>
<defs>
<linearGradient id="paint0_linear_154_13" x1="16" y1="0" x2="16" y2="32" gradientUnits="userSpaceOnUse">
<stop/>
<stop offset="1"/>
</linearGradient>
<clipPath id="clip0_154_13">
<rect width="32" height="32" rx="4" fill="white"/>
</clipPath>
</defs>
</svg>
